<svg xmlns="http://www.w3.org/2000/svg" version="1.1" xmlns:xlink="http://www.w3.org/1999/xlink" xmlns:svgjs="http://svgjs.dev/svgjs" width="2000" height="737" viewBox="0 0 2000 737"><g transform="matrix(1,0,0,1,-1.2121212121212466,-0.9526928839613902)"><svg viewBox="0 0 396 146" data-background-color="#fefefe" preserveAspectRatio="xMidYMid meet" height="737" width="2000" xmlns="http://www.w3.org/2000/svg" xmlns:xlink="http://www.w3.org/1999/xlink"><g id="tight-bounds" transform="matrix(1,0,0,1,0.2400000000000091,0.18872884811175084)"><svg viewBox="0 0 395.52 145.6225423037765" height="145.6225423037765" width="395.52"><g><svg viewBox="0 0 395.52 145.6225423037765" height="145.6225423037765" width="395.52"><g><svg viewBox="0 0 395.52 145.6225423037765" height="145.6225423037765" width="395.52"><g id="textblocktransform"><svg viewBox="0 0 395.52 145.6225423037765" height="145.6225423037765" width="395.52" id="textblock"><g><rect width="395.52" height="108.0355598910856" fill="none" stroke-width="9.018103199999999" stroke="#931396" data-fill-palette-color="none" data-stroke-palette-color="tertiary"></rect><rect width="395.52" height="37.586982412690894" y="108.0355598910856" fill="#931396" data-fill-palette-color="tertiary"></rect></g><g><svg viewBox="0 0 395.52 108.0355598910856" height="108.0355598910856" width="395.52"><g transform="matrix(1,0,0,1,23.607599999999998,23.607599999999998)"><svg width="348.3048" viewBox="3.49 -36.01 206.20999999999998 36.01" height="60.820359891085594" data-palette-color="#5f0b67"><path d="M3.49-4.81L19.7-4.81 19.7-10.84 8.3-10.84Q7.3-10.84 6.42-11.22 5.54-11.6 4.9-12.24 4.25-12.89 3.87-13.77 3.49-14.65 3.49-15.65L3.49-15.65 3.49-21.19Q3.49-22.19 3.87-23.07 4.25-23.95 4.9-24.6 5.54-25.24 6.42-25.62 7.3-26 8.3-26L8.3-26 23.51-26 23.51-21.19 8.3-21.19 8.3-15.65 19.7-15.65Q20.7-15.65 21.57-15.27 22.44-14.89 23.1-14.25 23.75-13.6 24.13-12.72 24.51-11.84 24.51-10.84L24.51-10.84 24.51-4.81Q24.51-3.81 24.13-2.93 23.75-2.05 23.1-1.4 22.44-0.76 21.57-0.38 20.7 0 19.7 0L19.7 0 3.49 0 3.49-4.81ZM30.49-21.19L30.49-26 36.84-26 36.84-34.01 41.65-34.01 41.65-26 50.19-26 50.19-21.19 41.65-21.19 41.65-4.81 50.19-4.81 50.19 0 41.65 0Q40.67 0 39.79-0.38 38.91-0.76 38.25-1.4 37.6-2.05 37.22-2.93 36.84-3.81 36.84-4.81L36.84-4.81 36.84-21.19 30.49-21.19ZM80.68-21.19L80.68-4.81Q80.68-3.81 80.31-2.93 79.93-2.05 79.28-1.4 78.63-0.76 77.77-0.38 76.9 0 75.9 0L75.9 0 62.98 0Q62.01 0 61.13-0.38 60.25-0.76 59.6-1.4 58.95-2.05 58.58-2.93 58.2-3.81 58.2-4.81L58.2-4.81 58.2-21.19Q58.2-22.19 58.58-23.07 58.95-23.95 59.6-24.6 60.25-25.24 61.13-25.62 62.01-26 62.98-26L62.98-26 75.9-26Q76.9-26 77.77-25.62 78.63-25.24 79.28-24.6 79.93-23.95 80.31-23.07 80.68-22.19 80.68-21.19L80.68-21.19ZM75.9-21.19L62.98-21.19 62.98-4.81 75.9-4.81 75.9-21.19ZM111.69-21.19L111.69 0 106.88 0 106.88-21.19 93.47-21.19 93.47 0 88.69 0 88.69-26 93.47-26 93.47-21.41Q93.52-22.36 93.91-23.21 94.3-24.05 94.95-24.67 95.6-25.29 96.45-25.65 97.31-26 98.28-26L98.28-26 106.88-26Q107.88-26 108.76-25.62 109.64-25.24 110.28-24.6 110.93-23.95 111.31-23.07 111.69-22.19 111.69-21.19L111.69-21.19ZM141.69-21.19L141.69-10.55 124.48-10.55 124.48-4.81 141.69-4.81 141.69 0 124.48 0Q123.5 0 122.62-0.38 121.74-0.76 121.1-1.4 120.45-2.05 120.07-2.93 119.69-3.81 119.69-4.81L119.69-4.81 119.69-21.19Q119.69-22.19 120.07-23.07 120.45-23.95 121.1-24.6 121.74-25.24 122.62-25.62 123.5-26 124.48-26L124.48-26 136.88-26Q137.88-26 138.76-25.62 139.64-25.24 140.29-24.6 140.93-23.95 141.31-23.07 141.69-22.19 141.69-21.19L141.69-21.19ZM136.88-21.19L124.48-21.19 124.48-15.36 136.88-15.36 136.88-21.19ZM149.69-11.69L149.69-16.5 161.39-16.5 161.39-11.69 149.69-11.69ZM180.38-35.01L185.39-35.01 198.89 0 193.88 0 190.78-8.06 174.99-8.06 171.88 0 166.88 0 180.38-35.01ZM182.9-28.49L176.89-13.06 188.85-13.06 182.9-28.49ZM204.65-26L209.46-26 209.46 0 204.65 0 204.65-26ZM204.4-31.01L204.4-36.01 209.7-36.01 209.7-31.01 204.4-31.01Z" opacity="1" transform="matrix(1,0,0,1,0,0)" fill="#5f0b67" class="wordmark-text-0" data-fill-palette-color="primary" id="text-0"></path></svg></g></svg></g></svg></g></svg></g><g></g></svg></g><defs></defs></svg><rect width="395.52" height="145.6225423037765" fill="none" stroke="none" visibility="hidden"></rect></g></svg></g></svg>